<svg width="1190" height="939" viewBox="0 0 1190 939" fill="none" xmlns="http://www.w3.org/2000/svg">
<path d="M548.477 4.58667C563.784 1.52 579.411 0.0533333 595.024 0C615.904 1.02667 637.064 2.96 656.891 10.08C670.971 15.2667 685.117 21.8933 695.637 32.8933C697.317 34.5067 699.784 34.4 701.931 34.8133C729.024 38.7867 755.197 53.16 770.117 76.56C786.984 81.8133 801.797 92.3333 813.784 105.16C824.064 116.52 833.611 128.733 840.797 142.307C849.544 145.627 858.437 148.893 866.144 154.347C875.544 160.893 884.237 169.24 888.957 179.853C902.144 179.453 915.197 181.693 928.384 181.427C945.691 182.8 963.064 182.307 980.371 183.867C992.411 183.547 1004.4 184.747 1016.42 185.253C1027.56 184.907 1038.65 186.04 1049.77 186.52C1073.72 186.333 1097.65 189.04 1121.58 187.6C1138.16 186.053 1155.24 183.36 1169.73 174.667C1173.97 172.253 1177.14 168.52 1180.68 165.253C1182.26 165.227 1183.88 165.213 1185.52 165.187C1188.74 168.373 1190.08 172.867 1189.82 177.347C1190.85 189.493 1184.77 201.08 1176.76 209.8C1158.2 230.013 1131.4 238.92 1109.16 254.093C1089.12 267.6 1073.89 286.973 1061.29 307.333C1048.8 326.787 1037.05 346.827 1022.28 364.667C1007.92 382.147 990.037 397.24 968.877 405.733C961.704 408.84 954.091 410.653 946.584 412.667C941.864 415.333 938.224 419.533 933.771 422.613C922.731 430.16 909.517 434.187 896.224 435C881.944 436.76 867.717 433.32 854.224 429C851.637 433.453 848.571 437.627 846.277 442.253C856.811 445.36 865.837 451.813 875.024 457.587C899.317 473.333 922.237 491.067 945.077 508.813C950.771 512.467 955.264 518.267 956.344 525.067C957.851 537.413 949.091 547.693 946.731 559.373C966.064 573.76 983.997 590.733 996.664 611.427C1006.46 627.107 1011.9 645.44 1012.41 663.92C1022.54 668.787 1033.06 672.84 1043.62 676.693C1049.22 678.347 1054.33 682.253 1056.12 688C1060.61 702.573 1064.42 717.36 1068.49 732.053C1062.24 738.76 1056.37 745.8 1049.92 752.32C1045.36 733.707 1040.33 715.213 1034.73 696.893C1007.16 715.267 981.304 736.133 956.091 757.573C962.851 744.387 970.931 731.867 977.531 718.587C985.304 703.92 989.984 687.307 988.651 670.613C988.197 655.4 981.597 641.04 972.477 629.08C948.797 659.693 932.144 695.08 918.131 730.973C904.837 765.08 895.851 800.653 888.344 836.427C895.157 826.88 900.291 816.24 906.997 806.613C919.971 786.947 934.224 767.893 951.357 751.667C949.491 756.667 945.771 760.68 943.291 765.373C926.664 794.347 913.771 825.333 902.704 856.813C902.291 858.053 901.531 859.013 900.437 859.68C887.744 866.747 874.691 873.093 861.677 879.547C862.811 853.413 864.757 827.347 867.091 801.32C871.357 757.493 876.491 713.653 884.917 670.387C894.397 622.187 906.811 574.267 926.024 528.96C902.024 532.24 878.184 540.56 858.984 555.653C847.024 565.587 835.891 578.427 833.891 594.427C832.531 624.693 833.224 655 833.037 685.293C833.064 744.387 832.864 803.493 832.917 862.587C832.731 872.293 833.131 882.013 832.624 891.72C822.957 895.387 813.357 899.173 803.597 902.573C803.757 883.893 804.371 865.227 804.424 846.56C804.731 832.8 805.971 819.067 805.757 805.307C807.891 761.28 809.211 717.24 812.357 673.307C811.957 664.773 813.877 656.4 813.771 647.893C816.397 614.227 818.384 580.453 823.064 546.987C815.851 551.48 811.357 559.053 805.371 564.933C790.597 581.627 778.131 600.547 769.984 621.36C760.411 646.107 755.984 672.44 752.437 698.627C746.184 742.867 743.331 787.44 740.424 831.973C740.677 840.413 738.931 848.76 739.064 857.2C739.171 863.84 738.171 870.44 737.837 877.067C737.797 890.08 735.971 903.013 736.237 916.04C735.664 918.467 737.104 922.893 733.691 923.547C696.051 932.107 657.624 937.12 619.077 938.573C614.771 938.64 610.477 938.6 606.197 938.467C601.131 916.973 594.517 895.893 588.344 874.693C562.104 788.827 533.371 703.267 493.464 622.64C475.557 587.253 455.784 551.813 426.744 524.227C410.077 509.253 392.237 495.64 374.411 482.093C370.917 479.4 368.091 475.813 363.944 474.067C373.157 491.36 382.784 508.453 392.104 525.693C416.437 572 440.731 618.4 462.077 666.2C486.931 720.373 508.824 775.893 528.011 832.333C539.984 867.373 550.797 902.813 560.104 938.64C552.717 938.947 545.451 937.6 538.131 937.013C527.251 890.173 512.891 844.187 497.557 798.64C478.917 743.947 457.624 690.16 433.424 637.693C421.171 611.613 408.597 585.64 394.144 560.707C380.984 537.747 365.784 515.76 347.037 497C332.064 482.987 315.504 469.973 296.331 462.293C297.277 481.28 306.491 498.573 317.184 513.84C331.237 533.693 348.184 551.227 364.517 569.147C337.504 557 309.877 545.467 285.744 527.987C276.117 520.88 266.384 513.467 259.277 503.707C243.877 509.213 228.384 514.533 212.677 519.08C235.624 540.76 257.411 563.653 278.731 586.907C281.437 589.52 283.944 592.36 285.797 595.653C280.544 592.107 276.704 586.947 271.611 583.213C252.104 566.36 231.517 550.733 210.477 535.88C210.437 564.04 216.264 592.04 225.757 618.48C229.157 628.04 233.664 637.133 238.384 646.093C218.557 633.533 203.544 613.52 198.344 590.507C191.197 595.453 185.584 602.24 179.384 608.28C164.037 625.6 153.517 646.507 143.997 667.427C132.224 693.827 122.917 721.253 114.811 748.987C110.117 743.227 104.544 738.28 99.7972 732.587C98.2639 731.067 99.5706 728.84 99.8906 727.107C104.451 712.533 109.451 698.093 114.944 683.827C125.224 657.613 136.811 631.573 153.504 608.733C164.904 593.187 178.971 579.813 193.664 567.453C191.797 561.093 192.517 554.4 191.771 547.893C191.437 538.493 191.011 529.027 192.011 519.667C192.557 512.893 196.957 506.587 203.437 504.253C215.624 499.64 228.211 496.173 240.664 492.293C253.437 488.747 266.077 484.627 279.117 482.12C278.677 470.373 274.117 457.96 279.277 446.64C282.571 440.52 290.504 441.387 296.171 439.24C286.397 437.08 276.451 434.96 267.584 430.12C258.437 425.56 250.837 418.547 243.824 411.24C228.437 407.533 213.344 402.04 199.837 393.64C178.957 381.427 163.104 362.507 149.544 342.813C135.611 323.413 123.971 302.387 108.637 284C95.2906 268.667 80.5972 254.133 62.9972 243.707C46.5439 233.96 29.2639 224.96 15.5439 211.373C6.75723 201.813 -1.0561 189.627 0.117229 176.08C-0.269438 171.933 1.3839 168.133 4.2639 165.227C5.89056 165.24 7.51722 165.267 9.14389 165.28C21.3972 179.44 40.6772 183.747 58.4106 186.16C82.9839 188.627 107.797 188.573 132.411 186.68C140.344 186.333 148.317 187.013 156.237 186.133C163.371 185.307 170.557 185.147 177.731 185.267C186.664 185.413 195.517 183.84 204.437 183.92C217.384 184.24 230.211 182.013 243.171 182.507C257.157 180.88 271.277 181.6 285.251 179.84C292.517 163.987 307.704 153.187 323.571 147C328.131 145.427 329.704 140.4 332.077 136.68C345.944 112.84 365.584 90.68 392.011 80.8533C395.704 79.0933 400.517 79.2933 403.424 76.1733C419.504 51.1733 449.624 36 479.224 37.2C480.531 37.1467 481.651 36.6133 482.571 35.6C500.504 18.5467 524.611 9.58667 548.477 4.58667ZM522.171 29.6667C512.704 33.6933 503.197 38.8267 496.824 47.1333C494.517 52.0267 496.037 57.5067 496.571 62.6C498.317 71.48 500.144 80.36 501.317 89.3467C497.104 77.9067 494.437 64.9733 485.091 56.4C480.597 52.0933 473.971 52.5467 468.371 53.88C453.397 57.3733 438.397 63.9067 428.077 75.6533C424.877 79.12 422.637 84.28 424.931 88.84C429.357 97.3333 436.584 103.907 444.264 109.427C450.864 114.493 459.224 116.547 467.451 116.173C463.171 118.067 458.424 119.52 453.771 118.04C443.544 116.107 435.451 109.227 426.304 104.8C417.251 100.333 405.971 100.747 397.451 106.24C385.837 113.413 376.091 123.733 369.811 135.893C373.331 123.387 381.904 112.747 391.584 104.333C396.544 99.96 402.651 97.2 407.664 92.9333C406.611 93.1067 404.517 93.4533 403.464 93.6133C382.824 101.853 365.651 117.48 354.024 136.293C349.731 142.72 346.544 149.907 341.424 155.76C333.211 165.48 318.971 166.107 309.997 174.893C305.984 178.96 301.477 184.307 303.304 190.467C306.717 195.747 313.451 197.213 318.331 200.8C323.931 204.867 329.877 208.92 333.784 214.76C328.157 211.027 323.024 206.493 316.851 203.627C306.451 198.267 294.624 196.867 283.131 195.933C217.317 195.88 151.504 195.96 85.6906 195.907C77.6506 196.013 69.6639 195.027 61.6506 194.467C43.9172 192.307 25.6639 188.8 10.7839 178.253C12.1972 186.32 17.1039 193.52 23.1039 198.92C37.7572 210.013 56.2506 213.8 73.6906 218.28C121.784 228.867 170.597 235.733 219.197 243.573C237.464 246.28 255.877 250.733 271.851 260.32C290.424 270.853 304.677 287.107 318.704 302.84C326.664 310.64 333.704 319.36 341.877 326.933C339.184 316.293 335.877 305.6 336.237 294.493C335.251 278 339.624 260.933 349.477 247.573C347.717 256.933 346.211 266.48 347.331 276.027C348.464 290.773 354.504 304.44 357.464 318.827C359.637 328.133 363.691 337.68 361.011 347.347C354.411 363.853 350.211 382.04 353.557 399.8C356.131 422.6 368.051 444.333 386.344 458.267C404.864 472.52 429.171 479.507 452.397 475.96C473.517 472.987 493.717 461.613 506.037 444.027C519.171 425.96 533.531 408.693 544.624 389.227C547.851 384.347 550.011 378.84 553.544 374.173C543.517 402.52 525.424 426.907 510.411 452.68C507.517 457.947 504.317 463.227 503.131 469.2C502.504 474.64 507.291 479.587 512.504 480.413C520.811 481.867 529.291 481.013 537.691 481.267C535.544 474.787 536.531 467.853 536.477 461.16C538.517 446.107 542.517 430.693 551.357 418.133C547.704 431.813 543.917 445.733 544.357 460.027C544.597 467.427 543.437 475.093 546.117 482.2C557.531 482.36 568.957 482.4 580.384 482.627C580.557 475.013 580.024 467.387 580.704 459.8C582.104 448.133 582.691 436.16 586.424 424.947C585.731 443.68 586.984 462.413 587.291 481.12C587.597 481.427 588.211 482.027 588.517 482.333C597.704 482.893 606.957 482.467 616.171 482.547C618.264 465.987 616.731 449.32 615.731 432.76L617.264 433.893C621.104 449.773 623.197 466.24 621.971 482.587C634.237 482.467 646.504 482.92 658.771 482.573C661.904 472.853 660.811 462.48 660.077 452.493C658.117 442.347 655.917 431.893 650.664 422.867C651.184 422.08 651.731 421.307 652.291 420.56C654.651 426.28 658.384 431.307 660.517 437.147C666.024 451.467 668.464 467.573 664.477 482.6C673.371 482.52 682.251 482.653 691.144 482.573C694.464 482.413 698.837 482.213 700.317 478.6C702.717 474.973 701.664 470.453 700.371 466.64C687.984 433.707 657.277 411.12 647.237 377.053C651.184 382.587 653.997 388.867 658.064 394.347C664.744 403.547 671.077 413.133 679.397 420.973C692.717 435.36 706.624 450.16 724.824 458.333C747.397 468.72 774.104 468.52 796.984 459.147C811.557 453.413 825.411 444.027 833.077 430.027C843.064 411.827 846.157 390.467 843.851 370C841.411 353.787 834.851 338.173 824.664 325.293C822.371 322.493 820.224 319 821.144 315.24C823.251 302.973 828.957 291.293 828.451 278.613C829.451 265.04 824.491 251.027 814.757 241.453C801.664 227.72 785.611 216.64 767.851 209.84C753.504 204.427 737.211 201.84 722.491 207.36C710.637 211.413 700.851 219.48 692.264 228.347C698.957 216.32 708.784 205.867 720.597 198.747C730.557 192.653 742.971 193.827 753.704 197.027C774.197 202.973 792.797 214.133 809.837 226.76C817.891 233.587 826.557 239.987 832.837 248.6C841.984 260.52 844.531 276.48 842.237 291.08C844.797 288.453 845.144 284.667 845.744 281.253C847.784 269.947 846.237 257.773 840.717 247.64C838.637 243.427 834.744 240.627 831.891 237.013C845.517 241 855.371 253.627 858.251 267.253C862.237 287.547 855.131 307.72 846.864 326C854.064 319.867 859.171 311.787 865.131 304.52C876.077 289.547 888.917 275.813 904.424 265.48C923.917 251.973 946.584 243.76 969.637 238.733C1011.32 229.373 1054.01 226.04 1096.45 222.32C1116.72 219.973 1137.69 217.36 1155.88 207.44C1167.14 201.36 1177 191.08 1179.3 178.093C1161 190.893 1138.21 194.36 1116.44 195.92C1048.42 195.907 980.411 195.947 912.411 195.907C896.877 196.2 880.571 196.133 866.291 203.12C858.864 206.547 852.704 212.093 845.451 215.8C852.011 208.507 859.317 201.92 866.104 194.84C869.504 191.293 871.051 185.747 868.504 181.28C863.064 170.187 851.211 164.507 840.291 160.133C827.384 155.08 813.931 148.28 806.784 135.813C801.317 127.187 800.331 116.12 792.944 108.667C784.664 100.213 774.651 92.1333 762.571 90.44C765.557 94.56 770.491 96.4533 774.331 99.6133C779.064 102.76 782.771 107.067 786.464 111.32L785.464 112.08C780.717 108.267 775.851 104.56 770.544 101.547C765.264 98.72 758.997 97.5333 753.171 99.2133C742.837 102.947 734.851 111.187 724.371 114.587C719.531 116.48 714.237 116.04 709.184 115.68C714.077 113.773 719.517 113.133 723.877 109.987C731.584 105.413 737.171 98.2667 742.571 91.28C744.717 88.2933 746.491 84.92 746.971 81.2267C746.504 76.2 742.984 72.0667 739.317 68.8933C727.771 59.48 713.491 53.7867 698.851 51.48C695.317 50.88 691.504 51.32 688.397 53.1467C678.611 59.8 674.197 71.1067 669.904 81.6C671.437 73.32 673.717 65.1867 676.384 57.2C678.091 52.6933 677.744 47.8267 677.731 43.1067C671.157 33.1467 659.037 29.2267 648.451 25.0267C607.571 11.8667 561.944 13.32 522.171 29.6667ZM1022.53 271.427C1000.84 279.16 978.624 287.8 961.384 303.573C949.091 314.693 939.851 329.973 938.597 346.773C937.064 359.253 939.851 373.653 950.784 381.28C935.584 388.973 918.811 393.773 901.757 394.52C894.331 394.453 886.331 393.133 880.904 387.613C879.784 390.08 876.744 392.467 877.811 395.413C880.597 398.467 884.677 399.787 888.477 401.107C895.997 403.88 904.117 402.107 911.917 402.733C902.957 407.093 893.104 409.507 883.171 410.213C877.237 410.413 871.651 407.84 865.757 407.893C867.051 409.667 868.211 411.8 870.437 412.587C878.984 416.24 888.357 417.8 897.651 417.267C912.477 418.053 926.211 410.027 936.211 399.653C943.477 395.227 952.451 395.12 960.157 391.627C981.891 384.133 999.744 368.427 1013.42 350.32C1032.58 326.773 1046.78 299.707 1065.4 275.747C1060.32 278.027 1057.66 283.267 1054.04 287.2C1036.92 309.32 1023.72 335.253 1000.82 352.24C994.104 357.507 986.251 360.893 978.811 364.92C973.651 367.493 971.637 373.093 968.744 377.667C968.171 372.8 967.544 367.8 968.624 362.973C971.157 356.053 978.611 353.56 984.731 350.8C995.331 346.333 1004.88 339.347 1012.21 330.467C1027.85 313.187 1038.21 291.92 1053.41 274.293C1059.56 268.08 1065.56 261.667 1072.37 256.16C1075.44 253.693 1078.32 250.947 1080.57 247.693C1061.93 257.2 1042.32 264.653 1022.53 271.427ZM100.491 257.173C102.091 259.493 103.997 261.613 106.024 263.587C121.491 279.307 137.251 294.96 149.731 313.253C165.811 335.387 180.237 359.92 203.317 375.6C216.064 384.707 230.837 390.253 245.704 394.827C249.757 396.187 254.184 397.227 257.397 400.24C261.144 403.72 264.277 407.853 268.371 410.96C277.357 417.507 288.077 421.573 299.131 422.853C311.411 424.827 324.997 424.707 336.051 418.347C342.384 414.6 339.224 406.56 338.837 400.773C336.064 404.68 333.477 408.973 329.251 411.507C322.437 415.227 314.331 414.947 307.011 413C300.184 411.067 292.704 409.227 287.611 403.947C298.411 406.013 310.931 406.987 320.384 400.267C325.264 397.053 329.011 390.413 325.571 384.88C320.584 388.92 315.091 392.573 308.691 393.853C290.264 396.96 271.384 392.28 255.011 383.707C256.491 369.667 249.971 356.253 241.384 345.587C227.011 327.547 206.411 316 185.811 306.467C159.251 294.667 132.624 282.107 109.704 264C106.704 261.613 103.957 258.867 100.491 257.173ZM500.877 487.333C496.824 492.64 492.597 498.347 491.531 505.107C490.797 512.053 495.304 518.667 501.531 521.493C510.171 526.4 520.277 525.147 529.784 525.227C534.757 524.813 538.731 528.293 542.557 530.96C555.224 540.76 569.677 548.373 585.157 552.587C599.757 556.613 615.731 556.84 629.771 550.613C647.744 543.627 659.877 527.347 677.451 519.64C685.477 515.48 695.184 514.453 702.104 508.293C706.011 505.173 706.917 499.587 705.304 495.04C702.237 491.24 696.984 490.04 692.317 490.027C683.411 490.427 674.531 490.92 665.677 491.867C653.211 491.573 640.837 493.627 628.371 493.267C609.984 493.04 591.544 493.933 573.197 492.093C555.904 491.96 538.744 489.76 521.504 488.84C515.917 487.707 509.557 488.853 504.797 485.133C503.264 485.453 501.717 485.893 500.877 487.333ZM499.317 578.52C500.264 580.547 501.317 582.613 502.544 584.507C528.957 623.36 556.291 661.56 582.784 700.36C597.611 722.173 612.971 743.64 627.411 765.707C626.064 765.067 624.744 764.36 623.477 763.6C607.104 752 591.051 739.92 574.931 727.96C591.104 756.48 608.424 784.373 625.371 812.44C626.451 814.32 627.251 816.52 629.131 817.8C631.544 810 635.104 802.613 638.224 795.08C661.051 741.293 684.051 687.6 707.237 633.987C683.557 644.693 660.064 655.84 636.291 666.373C625.291 670.827 613.797 676.92 601.531 674.347C593.731 672.187 587.984 666.04 582.051 660.907C566.997 647.587 552.611 633.493 538.717 618.973C525.331 605.733 513.464 590.987 499.317 578.52ZM512.424 586.053C514.837 590.24 518.544 593.4 522.064 596.64C542.477 615.147 562.744 633.84 584.411 650.907C589.171 654.413 593.517 658.707 599.037 661.04C608.917 663.307 619.024 659.813 627.864 655.48C645.944 646.16 659.371 629.613 668.077 611.52C645.171 617.547 621.451 621.347 597.731 619.587C578.557 617.64 559.064 614.64 541.344 606.773C549.957 606.253 558.624 607.053 567.224 606.213C577.424 604.827 587.997 605.147 597.851 601.787C568.877 600.253 539.917 595.507 512.424 586.053Z" fill="#8CCF5F"/>
<path d="M503.077 53.4C512.131 38.04 531.731 31.4933 548.771 33.88C542.597 35.8933 535.864 35.7867 530.051 38.9067C520.277 43.0267 512.771 50.72 506.344 58.92C505.091 57.1733 504.024 55.32 503.077 53.4Z" fill="#8CCF5F"/>
<path d="M624.051 33.7067C638.051 30.9067 653.784 32.64 665.357 41.5467C670.597 45.4933 672.184 52.3733 670.771 58.5733C667.171 54.6933 665.184 49.4267 660.584 46.4667C650.211 37.52 636.157 34.5333 622.757 34.8533L624.051 33.7067Z" fill="#8CCF5F"/>
<path d="M691.584 57.8L694.997 57.2133C705.264 58.24 715.451 61.16 724.144 66.8533C729.491 70.1067 733.291 75.2 737.971 79.2533C737.784 82.5733 735.011 84.5333 732.797 86.5867C730.237 83.9333 727.797 81.16 725.517 78.2667C716.984 67.8 704.837 60.4533 691.584 57.8Z" fill="#8CCF5F"/>
<path d="M456.984 62.8933C463.331 60.6533 469.851 58.48 476.664 58.36L476.597 59.6667C461.331 62.4667 449.637 74.48 441.171 86.7733C437.877 86.5067 434.971 84.1067 433.611 81.2267C439.451 73.1867 447.851 66.8933 456.984 62.8933Z" fill="#8CCF5F"/>
<path d="M526.691 95.9733C536.984 88.08 550.024 83.32 563.064 83.5867C569.051 83.68 575.344 84.4267 580.464 87.7867C573.744 88.1733 566.997 87.64 560.291 88.0534C548.824 89.4 537.397 91.52 526.691 95.9733Z" fill="#8CCF5F"/>
<path d="M595.264 87.7734C601.891 83.6934 609.984 83.3867 617.544 83.52C627.984 84.1467 637.637 88.4267 646.984 92.7734C646.344 92.88 645.091 93.0934 644.451 93.2C636.304 90.1734 627.571 89.52 619.051 88.16C611.144 87.3867 603.184 88.2934 595.264 87.7734Z" fill="#8CCF5F"/>
<path d="M541.877 94.5467C555.171 92 569.584 93.56 581.504 100.187C584.544 101.72 588.197 105.907 591.624 102.88C600.917 95.8933 612.837 92.72 624.384 93.2267C641.037 92.48 656.891 98.92 671.491 106.267C683.411 112.32 696.731 114.6 709.251 118.987C716.891 121.533 721.131 128.667 725.624 134.787C731.224 131.253 737.117 125.853 744.291 128.373C768.357 134.427 787.637 152.16 802.451 171.347C793.797 163.96 785.544 155.893 775.597 150.147C763.771 142.64 749.504 137.32 735.357 140.387C723.851 143.933 715.584 153.227 707.397 161.547C702.117 166.64 698.317 173.027 693.077 178.173C698.264 167.44 705.571 157.76 709.837 146.56C712.557 139.493 711.557 130.573 705.424 125.573C695.704 117.747 683.931 113.12 672.224 109.147C659.917 104.547 647.011 100.587 633.717 101.227C624.464 100.68 614.904 102.72 607.064 107.787C601.424 111.453 598.277 117.84 596.877 124.24C594.317 135.6 592.637 147.16 591.917 158.773C587.397 144.32 586.864 128.227 578.157 115.293C572.531 106.12 561.264 102.84 551.157 101.88C546.197 101.72 541.237 99.24 536.344 101.013C538.611 101.053 540.877 101.04 543.157 101.093C536.157 102.32 528.984 102.387 522.117 104.347C509.331 107.8 496.797 112.667 485.517 119.693C479.237 123.587 473.291 129.453 472.451 137.147C470.997 148.8 478.317 159.013 484.997 167.787C484.357 168.48 483.717 169.173 483.077 169.867C478.944 164.88 473.624 161.08 468.437 157.293C459.331 150.867 449.037 145.133 437.637 144.747C429.317 143.813 421.291 146.8 413.784 150.027C422.837 140.373 437.064 138.147 449.704 138.6C452.731 138.413 456.357 139.347 458.811 137.027C462.384 133.933 461.957 128.253 465.704 125.267C472.677 119.347 481.757 116.947 490.091 113.6C507.584 107.84 523.104 96.2533 541.877 94.5467Z" fill="#8CCF5F"/>
<path d="M416.184 136.973C424.157 132.227 434.784 128.333 443.651 132.827C424.504 135.32 409.384 148.6 395.317 160.733C388.677 166.027 383.637 172.933 377.691 178.92C387.304 162.467 400.411 147.747 416.184 136.973Z" fill="#8CCF5F"/>
<path d="M530.397 176.72C545.624 171.067 562.291 166.347 578.557 169.827C584.011 170.76 588.224 175.267 593.544 176.067C599.677 172.333 606.464 169.133 613.784 169C635.544 167.787 656.824 175.693 675.317 186.573C662.717 182.427 649.811 177.987 636.344 178.467C626.237 178.053 614.771 179.2 607.344 186.867C599.024 194.587 596.904 206.373 595.237 217.08C593.584 228.707 593.704 240.467 592.397 252.133C591.797 233.733 592.557 214.693 585.877 197.187C583.424 191.653 580.384 185.76 574.824 182.813C567.731 178.533 559.171 178.347 551.144 178.573C537.104 178.107 523.517 182.28 510.411 186.827C516.357 182.227 523.571 179.693 530.397 176.72Z" fill="#8CCF5F"/>
<path d="M839.837 170.547C849.904 170.12 860.331 176.627 863.091 186.573C861.891 187.573 860.704 188.573 859.517 189.587C857.357 185.133 854.971 180.6 851.091 177.4C847.731 174.493 843.597 172.787 839.837 170.547Z" fill="#8CCF5F"/>
<path d="M486.877 173.8C486.811 172.32 487.451 171.747 488.797 172.107C488.917 172.88 489.171 174.44 489.291 175.213C488.691 174.867 487.477 174.147 486.877 173.8Z" fill="#8CCF5F"/>
<path d="M308.504 185.32C312.184 179.16 318.957 174.44 326.317 174.533C320.251 178.533 312.757 182.2 310.491 189.707C309.637 188.387 307.691 187.12 308.504 185.32Z" fill="#8CCF5F"/>
<path d="M437.504 198.187C447.624 195.133 459.344 193.587 468.904 199.187C480.651 205.707 490.051 215.907 497.637 226.867C487.957 218.36 477.264 210.467 464.544 207.28C451.104 203.333 436.944 206.893 424.251 211.773C406.731 219 390.811 230.107 377.957 244.04C367.931 254.427 360.424 267.44 357.264 281.573L356.397 281.587C356.477 274.773 355.757 267.787 358.024 261.227C361.611 248.653 371.731 239.693 380.837 230.973C397.624 216.92 416.451 204.68 437.504 198.187Z" fill="#8CCF5F"/>
<path d="M726.984 252.987C757.037 247.84 787.677 261.333 808.531 282.627C812.264 286.68 815.251 291.613 816.251 297.08C816.664 305.147 816.504 313.253 817.691 321.267C810.371 315.373 804.584 307.8 797.051 302.16C781.597 290.133 764.344 278.893 744.557 276.12C734.744 275.48 724.691 275.413 715.184 278.307C701.517 282.067 689.157 289.987 679.344 300.147C672.251 307.107 665.677 314.933 661.704 324.133C682.184 301.427 713.877 287.453 744.571 292.92C770.784 297.867 791.624 316.147 809.517 334.827C797.997 327.813 787.864 318.667 775.811 312.493C762.531 305.013 747.597 300.84 732.411 299.893C709.904 299.973 687.824 309.013 671.277 324.187C664.264 330.107 658.771 337.853 650.704 342.48C643.051 346.587 632.824 342.987 629.317 335.053C626.664 330.147 629.797 324.973 631.584 320.387C617.037 312.107 599.397 310.293 583.104 313.267C570.424 314.773 558.517 319.533 546.304 322.96C548.504 328.173 552.144 332.907 552.931 338.627C551.944 341.413 549.051 342.613 546.304 342.773C536.984 336.347 530.957 326.413 522.037 319.547C507.691 308.267 489.397 301.627 471.077 302.32C444.784 302.507 420.571 315.733 400.451 331.693C394.824 335.64 389.877 340.6 383.691 343.693C393.837 325.547 408.331 309.467 427.037 299.96C443.637 290.613 462.797 287.013 481.704 287.307C448.411 282.28 415.077 296.813 390.104 318.147C381.011 325.507 374.091 335.053 366.891 344.16C367.837 339.08 369.264 333.84 367.877 328.693C365.971 320.333 361.904 311.667 364.837 303.04C367.424 297.48 372.557 293.693 376.984 289.667C396.464 274.733 419.771 264.24 444.291 261.507C463.197 259.947 482.224 263.32 500.077 269.56C513.931 274.4 527.371 280.307 540.904 285.96C550.277 289.68 559.544 294.067 569.584 295.693C585.437 297.827 601.744 298.413 617.544 295.507C630.491 293.053 642.731 287.893 654.224 281.573C677.277 269.427 700.637 256.067 726.984 252.987Z" fill="#8CCF5F"/>
<path d="M439.744 323.347C455.957 316.733 474.251 315.267 491.157 320.08C512.237 325.947 532.797 337.293 545.704 355.413C531.037 366.44 514.384 375 496.824 380.4C473.664 386.64 447.744 385.453 426.477 373.653C413.997 368.147 405.184 357.12 393.237 350.84C385.064 349.84 377.811 354.907 370.464 357.72C375.264 352.12 382.397 349.36 389.357 347.533C407.411 342.28 422.277 330.013 439.744 323.347ZM445.717 336C442.504 335.973 439.211 335.76 436.304 337.387C435.424 346.267 440.157 354.533 446.544 360.347C454.424 368.76 466.557 371.613 477.731 370.827C480.477 370.44 483.824 371.133 486.011 368.987C478.291 369.507 470.291 369.773 462.984 366.787C454.717 364.173 448.277 357.693 444.077 350.293C449.784 353.187 456.944 354.133 462.477 350.36C466.811 346.88 469.971 340.107 466.624 334.973C459.891 331.32 452.651 335.32 445.717 336ZM409.691 351.04C409.464 353.587 412.597 355.133 414.064 356.96C423.557 364.787 435.211 369.88 447.277 372.16C442.691 368.64 439.091 364.013 436.224 359.04C432.891 353.12 432.264 346.253 430.931 339.72C424.317 344.333 416.584 346.947 409.691 351.04Z" fill="#8CCF5F"/>
<path d="M660.597 349.373C676.397 333.467 696.731 321.173 719.144 317.827C735.571 315.68 752.437 318.267 767.624 324.88C787.904 332.84 807.971 344.2 830.357 344.04C824.824 349.36 816.544 346.52 809.824 347.08C803.224 352.827 797.131 359.187 789.957 364.253C777.477 373.16 763.131 379.813 747.864 381.893C730.531 384.227 712.451 382.773 696.224 375.973C682.664 371.04 670.424 363.133 658.664 354.92C656.037 353.2 659.477 350.853 660.597 349.373ZM703.384 336.147C702.291 337.107 701.211 338.067 700.117 339.027C700.637 341.08 701.251 343.107 701.931 345.133C705.211 345.853 708.797 346.72 711.917 344.92C715.224 343.133 713.771 338.6 712.304 336C711.344 335.747 709.424 335.24 708.477 334.987C706.771 335.373 705.077 335.747 703.384 336.147ZM748.531 344C750.517 343.933 752.544 343.973 754.544 343.76C756.197 342.6 756.717 340.6 757.504 338.867C756.811 338.133 755.424 336.667 754.717 335.933C752.971 335.893 751.224 335.853 749.491 335.813C746.597 337.853 746.584 341.253 748.531 344ZM762.051 346.933C755.611 357.547 743.851 366.093 730.984 365.32C719.251 365.867 708.264 358.6 702.371 348.76C699.877 345.387 699.411 340.893 696.357 337.92C696.064 342.24 698.171 346.133 700.131 349.827C706.771 360.853 719.304 368.747 732.411 367.987C742.224 368.2 751.557 363.48 758.251 356.493C764.011 351.387 766.504 343.893 768.624 336.747C764.731 338.707 764.331 343.613 762.051 346.933ZM771.251 339.307C770.864 351.347 765.864 363.92 755.411 370.653C766.877 368.147 777.864 363.267 787.291 356.267C789.357 354.613 792.917 351.627 790.011 349.04C784.504 344.573 777.637 342.2 771.251 339.307ZM673.624 353.84C677.717 358.76 683.557 361.64 689.197 364.427C694.491 366.64 699.811 369.227 705.651 369.453C697.077 362.4 692.637 351.76 690.997 341C685.171 345.24 678.784 348.747 673.624 353.84Z" fill="#8CCF5F"/>
<path d="M577.771 328.08C589.304 324.347 602.637 323.427 613.597 329.4C615.851 330.44 617.584 332.267 619.184 334.133C611.557 330.827 603.584 327.387 595.091 327.84C585.277 328.253 575.304 330.053 566.517 334.64C569.211 330.987 573.691 329.573 577.771 328.08Z" fill="#8CCF5F"/>
<path d="M590.877 346.16C607.811 343.027 624.437 353.613 632.331 368.227C627.384 366.24 623.184 362.853 618.304 360.76C608.624 356.253 597.504 353.08 586.864 355.693C579.771 356.973 572.824 359.92 567.611 365C567.224 364.973 566.424 364.907 566.037 364.88C569.904 354.48 579.997 347.4 590.877 346.16Z" fill="#8CCF5F"/>
<path d="M816.797 352.16C820.597 350.347 817.077 356.013 816.797 352.16Z" fill="#8CCF5F"/>
<path d="M814.077 353.293C816.291 354.667 819.184 354.667 821.411 353.28C823.944 354.96 826.464 356.693 828.824 358.64C825.571 358.427 822.371 357.853 819.131 357.733C815.144 358.307 811.651 360.573 807.824 361.707C809.104 358.36 811.691 355.853 814.077 353.293Z" fill="#8CCF5F"/>
<path d="M380.891 361.373C385.264 360.627 389.691 360.467 394.037 361.427C391.531 364.253 388.797 366.853 385.904 369.267C384.197 368 382.571 366.653 381.037 365.2C374.131 365.253 371.011 372.293 366.717 376.493C368.997 369.72 374.224 364.013 380.891 361.373Z" fill="#8CCF5F"/>
<path d="M409.677 366.227C413.011 368.853 415.664 372.267 419.091 374.8C434.931 386.893 455.491 391.56 475.144 390.533C495.784 388.787 515.971 382.147 533.491 371.08C530.571 375.08 526.117 377.48 522.557 380.827C512.557 388.507 502.251 396.4 490.024 400.147C480.331 403.16 469.877 405.267 459.797 403C447.171 401.067 435.771 394.267 426.464 385.76C419.984 380.12 413.717 373.88 409.677 366.227Z" fill="#8CCF5F"/>
<path d="M780.797 376.213C784.717 373.84 787.851 370.427 791.584 367.787C780.477 383.84 763.197 397.173 743.184 398.88C719.037 402.2 696.051 389.427 678.624 373.84C697.477 384.08 718.944 389.973 740.464 388.707C754.637 387.827 768.771 383.88 780.797 376.213Z" fill="#8CCF5F"/>
<path d="M811.491 368.387C817.237 366.427 822.677 371.147 825.384 375.853C822.624 376.707 819.771 377.16 816.904 377.413C808.757 384.893 802.011 394.053 792.424 399.84C784.837 404.747 776.104 407.933 767.064 408.507C779.677 403.307 790.957 394.853 798.704 383.52C802.957 378.507 805.704 371.867 811.491 368.387Z" fill="#8CCF5F"/>
<path d="M367.864 383.907C371.571 376.893 380.184 373.187 387.864 375.253C398.304 376.573 405.037 385.387 412.037 392.253C427.224 408.24 450.251 415.053 471.891 413.013L472.104 414.253C464.731 415.613 457.371 417.6 449.797 417.32C437.837 416.867 425.744 413.707 415.784 406.907C406.731 401.013 400.051 392.027 390.264 387.213C383.437 383.627 375.437 382.52 367.864 383.907Z" fill="#8CCF5F"/>
<path d="M617.904 388.2C621.424 385.2 625.531 380.733 630.651 383.067C636.251 384.373 638.811 392.627 634.064 396.307C628.451 401.013 620.784 402.067 614.877 406.32C609.131 409.92 603.957 416.4 596.371 414.68C589.357 412.92 584.597 406.693 578.171 403.627C572.504 400.28 564.664 399.933 560.824 394.013C558.811 389.96 561.904 386.453 564.704 383.893C567.504 383.533 570.557 382.867 573.091 384.573C578.597 388.187 584.104 392.507 590.891 393.227C600.024 394.147 610.451 394.52 617.904 388.2Z" fill="#8CCF5F"/>
<path d="M534.824 389.133C536.744 386.68 538.344 383.813 541.064 382.133C531.037 400.88 517.624 417.72 503.304 433.36C512.504 417.76 523.677 403.387 534.824 389.133Z" fill="#8CCF5F"/>
<path d="M659.064 387.413C670.144 399.227 680.397 411.96 689.517 425.387C685.731 422.613 682.944 418.88 680.051 415.28C672.211 406.68 665.224 397.28 659.064 387.413Z" fill="#8CCF5F"/>
<path d="M650.224 419.72C650.597 419.92 650.597 419.92 650.224 419.72Z" fill="#8CCF5F"/>
<path d="M544.704 499.24C557.531 499.787 570.264 501.16 583.091 501.667C607.211 503.773 631.424 502.227 655.517 500.72C654.117 502.573 651.704 502.933 649.691 503.733C629.677 510.347 608.197 513.92 587.197 510.8C576.251 509.933 565.704 506.653 555.211 503.653C551.584 502.533 547.731 501.64 544.704 499.24Z" fill="#8CCF5F"/>
<path d="M239.957 597.347C240.224 593.987 241.637 589.133 245.691 588.987C250.477 588.387 254.731 591.107 258.531 593.653C275.091 604.867 288.264 620.293 299.771 636.493C315.184 658.507 327.384 682.547 338.997 706.72C363.264 757.08 383.784 809.16 402.451 861.827C408.891 880.52 415.197 899.267 420.637 918.267C410.717 915.88 400.891 913.12 391.104 910.28C387.037 909.427 385.544 905.12 383.371 902.12C366.011 876.04 345.424 852.147 322.397 830.92C318.144 827.627 314.357 823.747 309.771 820.907C309.637 820.12 309.397 818.547 309.264 817.76C312.904 820.64 317.291 822.267 321.277 824.56C343.931 837.093 364.851 852.8 383.131 871.12C382.251 856.867 378.104 843 373.997 829.387C366.464 805.933 356.317 783.24 342.917 762.547C326.824 737.08 307.184 714.16 288.384 690.693C273.464 671.827 258.611 652.547 248.277 630.68C243.744 620.173 239.237 609.027 239.957 597.347Z" fill="#8CCF5F"/>
<path d="M269.424 728.387C274.517 727.28 279.531 729.293 284.477 730.28C304.464 735.293 322.717 749.053 330.491 768.467C336.157 781.427 335.477 795.893 334.664 809.693C331.317 793.347 326.651 776.987 317.491 762.853C306.717 745.707 288.944 733.427 269.424 728.387Z" fill="#8CCF5F"/>
<path d="M306.397 818.693C302.851 817.427 306.344 814.547 308.251 816.92C308.517 818.253 307.904 818.84 306.397 818.693Z" fill="#8CCF5F"/>
<path d="M294.691 841.067C321.944 858.013 346.637 879.013 367.864 903.067C355.331 899.107 343.144 894.133 330.891 889.373C328.757 888.533 326.571 887.387 325.517 885.24C316.624 869.6 306.037 855 294.691 841.067Z" fill="#8CCF5F"/>
</svg>
